<svg width="19" height="19" viewBox="0 0 19 19" fill="none" xmlns="http://www.w3.org/2000/svg">
<path d="M9.76143 9.57644H9.01143C9.01143 9.89926 9.218 10.1859 9.52426 10.2879L9.76143 9.57644ZM10.5114 5.40977C10.5114 4.99556 10.1756 4.65977 9.76143 4.65977C9.34721 4.65977 9.01143 4.99556 9.01143 5.40977H10.5114ZM12.0243 11.1213C12.4172 11.2523 12.842 11.0399 12.9729 10.6469C13.1039 10.254 12.8916 9.82924 12.4986 9.69826L12.0243 11.1213ZM10.5114 9.57644V5.40977H9.01143V9.57644H10.5114ZM9.52426 10.2879L12.0243 11.1213L12.4986 9.69826L9.9986 8.86492L9.52426 10.2879ZM17.3448 9.57644C17.3448 13.7646 13.9496 17.1598 9.76143 17.1598V18.6598C14.778 18.6598 18.8448 14.593 18.8448 9.57644H17.3448ZM9.76143 17.1598C5.57327 17.1598 2.17809 13.7646 2.17809 9.57644H0.678093C0.678093 14.593 4.74484 18.6598 9.76143 18.6598V17.1598ZM2.17809 9.57644C2.17809 5.38828 5.57327 1.9931 9.76143 1.9931V0.493103C4.74484 0.493103 0.678093 4.55985 0.678093 9.57644H2.17809ZM9.76143 1.9931C13.9496 1.9931 17.3448 5.38828 17.3448 9.57644H18.8448C18.8448 4.55985 14.778 0.493103 9.76143 0.493103V1.9931Z" fill="white"/>
</svg>
